<?xml version="1.0" encoding="utf-8"?>
<!-- Generator: Adobe Illustrator 17.0.0, SVG Export Plug-In . SVG Version: 6.00 Build 0)  -->
<!DOCTYPE svg PUBLIC "-//W3C//DTD SVG 1.1//EN" "http://www.w3.org/Graphics/SVG/1.1/DTD/svg11.dtd">
<svg version="1.1" id="Calque_1" xmlns="http://www.w3.org/2000/svg" xmlns:xlink="http://www.w3.org/1999/xlink" x="0px" y="0px"
	 width="595.28px" height="841.89px" viewBox="0 0 595.28 841.89" enable-background="new 0 0 595.28 841.89" xml:space="preserve">
<path d="M311.479,296.198c0-0.489-0.349-0.838-0.838-0.838c-0.174,0-0.384,0-0.558,0c-1.047,0-1.78,1.187-1.78,1.187
	c-0.07,0.14-0.174,0.279-0.279,0.489c-0.105-0.454-0.209-0.803-0.314-1.152c-0.454-1.57-1.152-3.036-2.059-4.362
	c-0.663-0.942-1.605-1.256-2.652-1.466c-1.884-0.314-3.804-0.349-5.688-0.349c-1.919,0-3.804,0.035-5.688,0.349
	c-1.047,0.174-1.989,0.523-2.652,1.466c-0.942,1.361-1.64,2.792-2.059,4.362c-0.105,0.349-0.174,0.698-0.314,1.152
	c-0.14-0.209-0.244-0.349-0.279-0.489c0,0-0.733-1.187-1.78-1.187c-0.174,0-0.384,0-0.558,0c-0.489,0-0.838,0.349-0.838,0.838
	c0,0.349,0,0.698,0,1.047c0,0.523,0.349,0.872,0.907,0.872c0.523,0,1.047,0,1.605,0c0.209,0,0.419,0,0.628,0
	c0.035,0.035,0.035,0.07,0.07,0.105c-0.07,0.035-0.14,0.07-0.209,0.105c-1.361,1.291-2.059,2.862-2.059,4.746
	c0.035,1.117,0.105,2.233,0.244,3.35c0.105,0.872,0.279,1.71,0.698,2.478c0.174,0.349,0.384,0.593,0.768,0.663
	c0.174,0.035,0.209,0.14,0.209,0.314c0,0.454,0,0.942,0,1.396c0,0.663,0.384,1.047,1.012,1.047c0.558,0,1.117,0,1.64,0
	c0.698,0,1.082-0.349,1.082-1.082c0-0.349,0-0.733,0-1.117c2.548,0.174,5.06,0.279,7.573,0.279s5.06-0.105,7.573-0.279
	c0,0.384,0,0.733,0,1.117c0,0.698,0.384,1.082,1.082,1.082c0.558,0,1.117,0,1.64,0c0.628,0,1.012-0.384,1.012-1.047
	c0-0.454,0-0.942,0-1.396c0-0.14,0.035-0.279,0.209-0.314c0.384-0.07,0.593-0.349,0.768-0.663c0.384-0.803,0.593-1.64,0.698-2.478
	c0.14-1.117,0.209-2.233,0.244-3.35c0.035-1.884-0.698-3.455-2.059-4.746c-0.07-0.035-0.14-0.07-0.209-0.105
	c0.035-0.035,0.035-0.07,0.07-0.105c0.209,0,0.419,0,0.628,0c0.523,0,1.047,0,1.605,0c0.523,0,0.872-0.349,0.907-0.872
	C311.479,296.931,311.479,296.547,311.479,296.198z M288.202,297.315c0.419-1.675,1.047-3.28,1.919-4.781
	c0.035-0.07,0.105-0.14,0.174-0.209l0,0l0,0c0.07-0.035,0.14-0.105,0.209-0.105c0.558-0.244,2.233-0.733,6.77-0.768
	c4.537,0.035,6.212,0.523,6.77,0.768c0.105,0.035,0.174,0.07,0.209,0.105l0,0l0,0c0.07,0.07,0.105,0.105,0.174,0.209
	c0.907,1.501,1.535,3.071,1.919,4.781c0.035,0.105,0.035,0.244,0.035,0.314c-3.071-0.279-6.107-0.384-9.143-0.384
	s-6.107,0.14-9.143,0.384C288.132,297.524,288.167,297.42,288.202,297.315z M288.656,304.469c-1.117,0-1.989-0.907-1.989-1.989
	c0-1.082,0.907-1.989,1.989-1.989s1.989,0.907,1.989,1.989C290.645,303.562,289.772,304.469,288.656,304.469z M305.93,304.469
	c-1.117,0-1.989-0.907-1.989-1.989c0-1.082,0.907-1.989,1.989-1.989c1.117,0,1.989,0.907,1.989,1.989
	C307.919,303.562,307.047,304.469,305.93,304.469z"/>
<g>
	<path d="M288.055,344h-0.877c-1.34,0-2.429,1.085-2.429,2.427v0.436v0.775v12.137c0,1.342,1.088,2.429,2.429,2.429h0.877V344z"/>
	<path d="M307.444,344h-0.878v18.204h0.878c1.339,0,2.427-1.087,2.427-2.429v-12.137v-0.775v-0.436
		C309.872,345.085,308.784,344,307.444,344z"/>
	<path d="M289.18,362.204h16.26V344h-3.097v-2.3c0-0.672-0.542-1.215-1.214-1.215h-8.131c-0.67,0-1.213,0.543-1.213,1.215v2.3
		h-2.605L289.18,362.204L289.18,362.204z M292.696,341.7c0-0.167,0.137-0.302,0.302-0.302h8.131c0.167,0,0.302,0.135,0.302,0.302
		v2.3h-8.735V341.7z"/>
</g>
<path d="M297.31,419.824c1.011-1.011,6.781-6.784,10.388-10.391c3.232-3.232,3.163-7.943,0.224-10.865
	c-2.938-2.923-7.69-2.91-10.613,0.028c-2.923-2.939-7.674-2.951-10.612-0.028c-2.938,2.922-3.007,7.633,0.225,10.865
	C290.529,413.04,296.3,418.813,297.31,419.824z"/>
<g>
	<path d="M309.629,466.941c-0.048-1.549-1.214-1.44-2.699-1.44h-20.575c-1.485,0-2.652-0.108-2.699,1.44
		c-0.048,0.633-1.89,1.033-1.89,2.138s0.584,1.125,2.069,1.125h25.616c1.485,0,2.069-0.072,2.069-1.125
		C311.52,468.026,309.677,467.574,309.629,466.941z"/>
	<path d="M284.193,464.445c0.58,0,24.051,0,24.735,0c1.106,0,1.106-0.63,1.106-0.63c0-6.442-5.032-8.467-10.829-9.941v-2.087
		c0,0,0.054-0.604-0.701-0.604s-0.924,0-0.924,0v-1.303h2.255c0-1.288-1.442-2.211-3.221-2.211c-1.781,0-3.221,0.922-3.221,2.211
		h2.255v1.303c0,0-0.259,0-0.969,0c-0.71,0-0.655,0.651-0.655,0.651v2.04c-5.797,1.475-10.772,3.499-10.772,9.941
		C283.252,463.815,283.252,464.445,284.193,464.445z M292.219,455.761c-0.865,0.314-4.154,1.798-4.154,6.174l-1.561-0.006
		C286.503,457.598,289.234,456.754,292.219,455.761z"/>
</g>
<g>
	<path d="M306.925,530.689h-6.748v-6.748h-6.748v6.748h-6.748v-10.122c-0.932,0-1.687-0.755-1.687-1.687l11.809-10.122l5.061,4.338
		v-2.651h3.374v5.543l3.374,2.892c0,0.932-0.756,1.687-1.687,1.687L306.925,530.689z"/>
</g>
<g>
	<path d="M307.695,567.205l-10.738,6.667l-11.38-6.676c-0.259-0.149-0.594-0.065-0.747,0.196c-0.152,0.259-0.065,0.595,0.196,0.747
		l5.989,3.513l-3.098,5.624l4.321-4.907l4.452,2.612c0.086,0.05,0.181,0.075,0.276,0.075c0.101,0,0.2-0.028,0.288-0.082l4.351-2.703
		l4.398,4.996l-3.173-5.757l5.441-3.378c0.255-0.158,0.334-0.495,0.175-0.751C308.286,567.124,307.949,567.049,307.695,567.205z"/>
	<path d="M308.896,560.33h-24.51c-1.999,0-3.624,1.626-3.624,3.624v16.491c0,1.999,1.626,3.625,3.624,3.625h24.51
		c1.999,0,3.624-1.626,3.624-3.625v-16.491C312.52,561.956,310.895,560.33,308.896,560.33z M310.302,580.445
		c0,0.776-0.63,1.406-1.406,1.406h-24.51c-0.776,0-1.406-0.63-1.406-1.406v-16.491c0-0.776,0.63-1.406,1.406-1.406h24.51
		c0.776,0,1.406,0.63,1.406,1.406L310.302,580.445L310.302,580.445z"/>
</g>
</svg>
