<?xml version="1.0" encoding="utf-8"?>
<!-- Generator: Adobe Illustrator 17.1.0, SVG Export Plug-In . SVG Version: 6.00 Build 0)  -->
<!DOCTYPE svg PUBLIC "-//W3C//DTD SVG 1.1//EN" "http://www.w3.org/Graphics/SVG/1.1/DTD/svg11.dtd">
<svg version="1.1" xmlns="http://www.w3.org/2000/svg" xmlns:xlink="http://www.w3.org/1999/xlink" x="0px" y="0px" width="40px"
	 height="40px" viewBox="0 0 40 40" enable-background="new 0 0 40 40" xml:space="preserve">
<g id="LOB-Motor" display="none">
	<path display="inline" d="M38.1,13.9c0-0.6-0.4-1.1-1.1-1.1c-0.2,0-0.5,0-0.7,0c-1.3,0-2.3,1.5-2.3,1.5c-0.1,0.2-0.2,0.4-0.4,0.6
		c-0.1-0.6-0.3-1-0.4-1.5c-0.6-2-1.5-3.9-2.6-5.6c-0.8-1.2-2-1.6-3.4-1.9c-2.4-0.4-4.9-0.4-7.3-0.4c-2.4,0-4.9,0-7.3,0.4
		c-1.3,0.2-2.5,0.7-3.4,1.9c-1.2,1.7-2.1,3.6-2.6,5.6c-0.1,0.4-0.2,0.9-0.4,1.5C6.2,14.7,6,14.5,6,14.3c0,0-0.9-1.5-2.3-1.5
		c-0.2,0-0.5,0-0.7,0c-0.6,0-1.1,0.4-1.1,1.1c0,0.4,0,0.9,0,1.3c0,0.7,0.4,1.1,1.2,1.1c0.7,0,1.3,0,2,0c0.3,0,0.5,0,0.8,0
		c0,0,0,0.1,0.1,0.1c-0.1,0-0.2,0.1-0.3,0.1c-1.7,1.6-2.6,3.7-2.6,6.1c0,1.4,0.1,2.8,0.3,4.3c0.1,1.1,0.4,2.2,0.9,3.2
		c0.2,0.4,0.5,0.8,1,0.8c0.2,0,0.3,0.2,0.3,0.4c0,0.6,0,1.2,0,1.8c0,0.8,0.5,1.3,1.3,1.3c0.7,0,1.4,0,2.1,0c0.9,0,1.4-0.4,1.4-1.4
		c0-0.4,0-0.9,0-1.4c3.3,0.2,6.5,0.4,9.7,0.4s6.5-0.1,9.7-0.4c0,0.5,0,0.9,0,1.4c0,0.9,0.5,1.4,1.4,1.4c0.7,0,1.4,0,2.1,0
		c0.8,0,1.3-0.5,1.3-1.3c0-0.6,0-1.2,0-1.8c0-0.2,0-0.4,0.3-0.4c0.5-0.1,0.8-0.4,1-0.8c0.5-1,0.8-2.1,0.9-3.2
		c0.2-1.4,0.3-2.8,0.3-4.3c0-2.4-0.9-4.4-2.6-6.1c-0.1,0-0.2-0.1-0.3-0.1c0,0,0-0.1,0.1-0.1c0.3,0,0.5,0,0.8,0c0.7,0,1.3,0,2,0
		c0.7,0,1.1-0.4,1.2-1.1C38.1,14.8,38.1,14.3,38.1,13.9z M8.4,15.3c0.5-2.1,1.3-4.2,2.4-6.1C10.9,9.1,11,9,11,8.9l0,0l0,0
		c0.1,0,0.2-0.1,0.3-0.1c0.7-0.3,2.8-0.9,8.6-1c5.8,0,7.9,0.7,8.6,1c0.1,0,0.2,0.1,0.3,0.1l0,0l0,0C28.9,9,29,9,29.1,9.2
		c1.2,1.9,2,3.9,2.4,6.1c0,0.1,0,0.3,0,0.4c-3.9-0.4-7.8-0.5-11.7-0.5s-7.8,0.2-11.7,0.5C8.3,15.5,8.3,15.4,8.4,15.3z M9,24.4
		c-1.4,0-2.5-1.2-2.5-2.5s1.2-2.5,2.5-2.5s2.5,1.2,2.5,2.5C11.5,23.3,10.4,24.4,9,24.4z M31,24.4c-1.4,0-2.5-1.2-2.5-2.5
		s1.2-2.5,2.5-2.5c1.4,0,2.5,1.2,2.5,2.5C33.5,23.3,32.4,24.4,31,24.4z"/>
</g>
<g id="LOB-Travel" display="none">
	<g display="inline">
		<path d="M8.2,10.6H7.1C5.4,10.6,4,12,4,13.7v0.6v1v15.5c0,1.7,1.4,3.1,3.1,3.1h1.1V10.6z"/>
		<path d="M32.9,10.6h-1.1v23.2h1.1c1.7,0,3.1-1.4,3.1-3.1V15.3v-1v-0.6C36,12,34.6,10.6,32.9,10.6z"/>
		<path d="M9.6,33.9h20.7V10.6h-4V7.7c0-0.9-0.7-1.6-1.5-1.6H14.5c-0.9,0-1.5,0.7-1.5,1.6v2.9H9.6V33.9L9.6,33.9z M14.1,7.7
			c0-0.2,0.2-0.4,0.4-0.4h10.4c0.2,0,0.4,0.2,0.4,0.4v2.9H14.1L14.1,7.7L14.1,7.7z"/>
	</g>
</g>
<g id="LOB-Health" display="none">
	<path display="inline" d="M20,35c1.3-1.3,8.7-8.7,13.3-13.3c4.1-4.1,4-10.1,0.3-13.9c-3.7-3.7-9.8-3.7-13.5,0
		c-3.7-3.8-9.8-3.8-13.5,0c-3.7,3.7-3.8,9.7,0.3,13.9C11.3,26.3,18.7,33.7,20,35z"/>
</g>
<g id="LOB-Conciergerie" display="none">
	<g display="inline">
		<path d="M36.6,30.2c-0.1-2-1.5-1.8-3.4-1.8H6.9c-1.9,0-3.4-0.1-3.4,1.8C3.4,31,1,31.5,1,32.9c0,1.4,0.7,1.4,2.6,1.4h32.7
			c1.9,0,2.6-0.1,2.6-1.4C39,31.6,36.6,31,36.6,30.2z"/>
		<path d="M4.1,27c0.7,0,30.7,0,31.6,0c1.4,0,1.4-0.8,1.4-0.8c0-8.2-6.4-10.8-13.8-12.7v-2.7c0,0,0.1-0.8-0.9-0.8s-1.2,0-1.2,0V8.4
			h2.9c0-1.6-1.8-2.8-4.1-2.8c-2.3,0-4.1,1.2-4.1,2.8h2.9v1.7c0,0-0.3,0-1.2,0c-0.9,0-0.8,0.8-0.8,0.8v2.6C9.3,15.4,2.9,18,2.9,26.2
			C2.9,26.2,2.9,27,4.1,27z M14.4,15.9c-1.1,0.4-5.3,2.3-5.3,7.9l-2,0C7.1,18.3,10.5,17.2,14.4,15.9z"/>
	</g>
</g>
<g id="LOB-Home" display="none">
	<g display="inline">
		<path d="M32.9,34h-8.6v-8.6h-8.6V34H7.1V21.1c-1.2,0-2.2-1-2.2-2.2L20,6l6.5,5.5V8.2h4.3v7.1l4.3,3.7c0,1.2-1,2.2-2.2,2.2V34z"/>
	</g>
</g>
<g id="close" display="none">
	
		<line display="inline" fill="none" stroke="#FFFFFF" stroke-width="2" stroke-linecap="square" stroke-miterlimit="10" x1="30.1" y1="9.4" x2="8.9" y2="30.6"/>
	
		<line display="inline" fill="none" stroke="#FFFFFF" stroke-width="2" stroke-linecap="square" stroke-miterlimit="10" x1="30.1" y1="30.6" x2="8.9" y2="9.4"/>
</g>
<g id="arrow-up" display="none">
	<polyline display="inline" fill="none" stroke="#FFFFFF" stroke-width="2" stroke-miterlimit="10" points="3.5,27.6 19.8,12.4 
		35.5,27.1 	"/>
</g>
<g id="arrow-down" display="none">
	<polyline display="inline" fill="none" stroke="#FFFFFF" stroke-width="2" stroke-miterlimit="10" points="3.5,12.4 19.8,27.6 
		35.5,12.9 	"/>
</g>
<g id="arrow-right" display="none">
	<polyline display="inline" fill="none" stroke="#FFFFFF" stroke-width="2" stroke-miterlimit="10" points="12.4,36 27.6,19.7 
		12.9,4 	"/>
</g>
<g id="arrow-left" display="none">
	<polyline display="inline" fill="none" stroke="#FFFFFF" stroke-width="2" stroke-miterlimit="10" points="27.6,36 12.4,19.7 
		27.1,4 	"/>
</g>
<g id="search-open">
	<g>
		<circle fill="none" stroke="#FFFFFF" stroke-width="2" stroke-miterlimit="10" cx="14" cy="18.9" r="5.2"/>
		
			<line fill="none" stroke="#FFFFFF" stroke-width="2" stroke-linecap="round" stroke-miterlimit="10" x1="17.7" y1="22.5" x2="21.5" y2="26.3"/>
	</g>
	<polyline fill="none" stroke="#FFFFFF" stroke-linecap="round" stroke-miterlimit="10" points="25.3,18.5 28.6,21.5 31.7,18.6 	"/>
</g>
</svg>
